# xmcd
#
# Track frame offsets:
#	150
#	9343
#	19807
#	29591
#	41717
#	54732
#	65177
#	77746
#	88412
#	101654
#	113276
#	128437
#	140238
#	154305
#	164891
#	177527
#	189655
#	199122
#	209864
#	219831
#	232390
#	244987
#	258472
#	274320
#	287240
#	298915
#	311217
#	323537
#
# Disc length: 4491 seconds
#
# Revision: 1
# Processed by: cddbd v1.5.2PL0 Copyright (c) Steve Scherf et al.
# Submitted via: audiograbber 1.83.01
#
DISCID=c811891c
DTITLE=Merle Haggard - The Complete '60s Capitol Singles
DYEAR=2013
DGENRE=Country
TTITLE0=I'm Gonna Break Every Heart I Can
TTITLE1=Falling For You
TTITLE2=Shade Tree Fix-It Man
TTITLE3=This Town's Not Big Enough
TTITLE4=Swinging doors
TTITLE5=The Girl Turned Ripe
TTITLE6=The Bottle Let Me Down
TTITLE7=The Longer You Wait
TTITLE8=The Fugitive
TTITLE9=Someone Told My Story
TTITLE10=I Threw Away The Rose
TTITLE11=Loneliness Is Eating Me Alive
TTITLE12=Branded Man
TTITLE13=You Don't Have Very Far To Go
TTITLE14=Sing Me Back Home
TTITLE15=Good Times
TTITLE16=The Legend Of Bonnie And Clyde
TTITLE17=I Started Loving You Again
TTITLE18=Mama Tried
TTITLE19=You'll Never Love Me Now
TTITLE20=I Take A Lot Of Pride In What I Am
TTITLE21=Keep Me From Cryin' Today
TTITLE22=Hungry Eyes
TTITLE23=California Blues
TTITLE24=Workin' Man Blues
TTITLE25=Silver Wings
TTITLE26=Okie From Muskogee
TTITLE27=If I Had Left It Up To You
EXTD=
EXTT0=
EXTT1=
EXTT2=
EXTT3=
EXTT4=
EXTT5=
EXTT6=
EXTT7=
EXTT8=
EXTT9=
EXTT10=
EXTT11=
EXTT12=
EXTT13=
EXTT14=
EXTT15=
EXTT16=
EXTT17=
EXTT18=
EXTT19=
EXTT20=
EXTT21=
EXTT22=
EXTT23=
EXTT24=
EXTT25=
EXTT26=
EXTT27=You'll Never Love Me Now
PLAYORDER=
